<?xml version="1.0" encoding="utf-8"?>
<!-- Generator: Adobe Illustrator 16.0.0, SVG Export Plug-In . SVG Version: 6.00 Build 0)  -->
<!DOCTYPE svg PUBLIC "-//W3C//DTD SVG 1.1//EN" "http://www.w3.org/Graphics/SVG/1.1/DTD/svg11.dtd">
<svg version="1.1" id="Capa_1" xmlns="http://www.w3.org/2000/svg" xmlns:xlink="http://www.w3.org/1999/xlink" x="0px" y="0px"
	 width="136.274px" height="70.298px" viewBox="0 0 136.274 70.298" style="enable-background:new 0 0 136.274 70.298;"
	 xml:space="preserve">
<g>
	<path style="fill:#FFFFFF;" d="M43.407,54.552c-1.026,2.527-3.419,4.047-6.269,4.047c-3.895,0-6.839-2.755-6.839-6.934
		c0-4.123,2.925-6.878,6.858-6.878c3.059,0,5.224,1.672,6.098,3.705l-2.071,0.551c-0.551-0.95-1.786-2.279-4.104-2.279
		c-2.773,0-4.673,1.918-4.673,4.92c0,3.039,1.995,4.939,4.635,4.939c2.033,0,3.572-1.064,4.312-2.622L43.407,54.552z"/>
	<path style="fill:#FFFFFF;" d="M51.692,44.788c3.951,0,6.953,2.793,6.953,6.915c0,4.104-3.001,6.896-6.953,6.896
		c-3.933,0-6.915-2.793-6.915-6.896C44.777,47.581,47.759,44.788,51.692,44.788z M51.692,56.624c2.735,0,4.844-1.881,4.844-4.921
		c0-3.059-2.109-4.938-4.844-4.938c-2.717,0-4.807,1.899-4.807,4.938C46.885,54.723,48.975,56.624,51.692,56.624z"/>
	<path style="fill:#FFFFFF;" d="M73.143,54.552c-1.026,2.527-3.42,4.047-6.27,4.047c-3.895,0-6.839-2.755-6.839-6.934
		c0-4.123,2.925-6.878,6.858-6.878c3.058,0,5.224,1.672,6.098,3.705l-2.07,0.551c-0.552-0.95-1.786-2.279-4.104-2.279
		c-2.773,0-4.673,1.918-4.673,4.92c0,3.039,1.995,4.939,4.635,4.939c2.033,0,3.572-1.064,4.313-2.622L73.143,54.552z"/>
	<path style="fill:#FFFFFF;" d="M75.177,45.054h2.09v13.298h-2.09V45.054z"/>
	<path style="fill:#FFFFFF;" d="M82.017,48.493h-0.038c0,0.019,0.038,1.596,0.038,3.268v6.592h-2.09V45.054h2.127l7.067,9.727h0.057
		c0-0.02-0.038-1.615-0.038-3.115v-6.611h2.09v13.298h-2.127L82.017,48.493z"/>
	<path style="fill:#FFFFFF;" d="M96.399,55.255l-1.254,3.097h-2.204l5.49-13.298h2.337l5.471,13.298h-2.241l-1.235-3.097H96.399z
		 M100.711,50.145c-0.475-1.178-1.082-2.697-1.102-2.717h-0.057c-0.02,0.02-0.646,1.539-1.121,2.717l-1.272,3.211h4.844
		L100.711,50.145z"/>
</g>
<g>
	<defs>
		<rect id="SVGID_1_" y="0" width="136.274" height="70.298"/>
	</defs>
	<clipPath id="SVGID_2_">
		<use xlink:href="#SVGID_1_"  style="overflow:visible;"/>
	</clipPath>
	<path style="clip-path:url(#SVGID_2_);fill:#FFFFFF;" d="M74.89,31.198l0.272-0.272l0.264,0.264c0.257,0.258,0.68,0.258,0.937,0
		l1.099-1.098c0.257-0.258,0.257-0.68,0-0.937l-0.264-0.264l0.271-0.272l-10.67-10.671l-2.579,2.579L74.89,31.198z"/>
	<path style="clip-path:url(#SVGID_2_);fill:#FFFFFF;" d="M64.388,19.729c-1.525-0.674-13.583-6.052-16.234-8.57
		c-1.036-0.985-1.509-2.342-1.408-3.666c0.296,0.826,0.797,1.621,1.503,2.327c2.517,2.517,14.394,8.616,16.407,9.642l0.412-0.412
		c-0.11-0.173-0.273-0.427-0.481-0.752c0.324,0.209,0.579,0.371,0.752,0.481l0.4-0.4c-0.95-1.961-6.394-13.042-9.701-16.349
		c-0.746-0.746-1.591-1.263-2.468-1.552c1.39-0.17,2.841,0.296,3.878,1.388c2.518,2.65,7.895,14.708,8.571,16.234l0.336-0.337
		C65.422,15.656,60.298,4.222,57.77,1.56c-1.376-1.449-3.419-1.894-5.203-1.312c-1.6-0.208-3.226,0.321-4.502,1.598
		c-1.306,1.304-1.828,2.976-1.581,4.611c-0.497,1.741-0.035,3.694,1.365,5.024c2.663,2.529,14.097,7.653,16.204,8.586L64.388,19.729
		z M63.093,16.805c-3.916-2.543-10.839-7.12-12.28-8.638c-0.842-0.885-1.289-2.047-1.257-3.268c0.012-0.478,0.098-0.943,0.25-1.382
		c0.439-0.151,0.903-0.237,1.381-0.249c1.222-0.032,2.383,0.414,3.269,1.256C55.975,5.966,60.551,12.888,63.093,16.805
		 M52.596,0.707c1.108,0.164,2.2,0.71,3.128,1.638c3.009,3.009,8.004,12.948,9.386,15.761c-0.293-0.187-0.667-0.428-1.105-0.71
		c-2.38-3.69-7.555-11.59-9.243-13.194c-0.972-0.923-2.245-1.413-3.586-1.378c-0.393,0.01-0.777,0.066-1.149,0.163
		c0.236-0.475,0.555-0.91,0.952-1.288C51.458,1.244,52.01,0.915,52.596,0.707 M48.377,2.159c0.938-0.937,2.083-1.434,3.258-1.497
		c-0.341,0.195-0.664,0.433-0.962,0.716c-0.536,0.51-0.947,1.121-1.212,1.793c-0.671,0.265-1.282,0.675-1.795,1.214
		c-0.318,0.336-0.581,0.705-0.788,1.095C46.925,4.283,47.423,3.114,48.377,2.159 M46.94,6.473c0.202-0.647,0.55-1.259,1.047-1.783
		c0.377-0.396,0.813-0.716,1.289-0.951c-0.097,0.371-0.153,0.756-0.164,1.148c-0.034,1.341,0.456,2.614,1.379,3.586
		c1.603,1.689,9.504,6.864,13.193,9.245c0.286,0.443,0.529,0.82,0.718,1.115c-2.894-1.487-13.548-7.036-15.839-9.327
		C47.662,8.605,47.121,7.548,46.94,6.473"/>
	<path style="clip-path:url(#SVGID_2_);fill:#FFFFFF;" d="M72.055,20.526l-2.578-2.579L58.805,28.619l0.272,0.272l-0.264,0.264
		c-0.258,0.257-0.258,0.68,0,0.937l1.098,1.098c0.257,0.258,0.679,0.258,0.937,0l0.264-0.264l0.271,0.272L72.055,20.526z"/>
	<path style="clip-path:url(#SVGID_2_);fill:#FFFFFF;" d="M72.222,20.066c2.106-0.933,13.541-6.057,16.203-8.586
		c1.4-1.33,1.862-3.283,1.365-5.024c0.247-1.635-0.275-3.307-1.581-4.611c-1.275-1.276-2.901-1.806-4.502-1.597
		c-1.784-0.583-3.826-0.138-5.202,1.311c-2.53,2.662-7.654,14.096-8.587,16.204l0.337,0.336c0.676-1.525,6.053-13.584,8.57-16.234
		c1.037-1.091,2.488-1.558,3.878-1.388c-0.878,0.289-1.722,0.806-2.468,1.553c-3.307,3.306-8.751,14.387-9.701,16.348l0.4,0.401
		c0.173-0.111,0.428-0.273,0.752-0.482c-0.208,0.325-0.371,0.579-0.481,0.752l0.412,0.412c2.014-1.026,13.891-7.125,16.407-9.642
		c0.706-0.706,1.206-1.501,1.503-2.327c0.1,1.324-0.372,2.682-1.408,3.666c-2.65,2.518-14.709,7.896-16.234,8.571L72.222,20.066z
		 M81.817,4.523c0.885-0.842,2.047-1.288,3.268-1.256c0.479,0.012,0.943,0.098,1.383,0.25c0.151,0.438,0.237,0.903,0.249,1.381
		c0.032,1.222-0.414,2.383-1.257,3.268c-1.44,1.518-8.363,6.096-12.28,8.638C75.723,12.888,80.3,5.966,81.817,4.523 M85.294,1.699
		c0.397,0.378,0.717,0.814,0.951,1.288c-0.371-0.097-0.755-0.153-1.148-0.163c-1.34-0.035-2.613,0.455-3.585,1.378
		c-1.689,1.604-6.863,9.504-9.244,13.194c-0.438,0.282-0.812,0.523-1.105,0.71c1.383-2.813,6.377-12.752,9.388-15.761
		c0.928-0.928,2.02-1.474,3.128-1.638C84.263,0.915,84.815,1.244,85.294,1.699 M89.396,5.479c-0.207-0.39-0.47-0.759-0.789-1.095
		c-0.512-0.539-1.123-0.949-1.794-1.214C86.548,2.5,86.137,1.888,85.6,1.377c-0.297-0.283-0.62-0.521-0.961-0.716
		c1.175,0.063,2.319,0.56,3.258,1.497C88.851,3.114,89.348,4.283,89.396,5.479 M87.71,9.506c-2.291,2.291-12.944,7.84-15.839,9.327
		c0.188-0.294,0.432-0.672,0.719-1.115c3.688-2.381,11.589-7.556,13.192-9.245c0.923-0.972,1.413-2.245,1.379-3.585
		c-0.011-0.393-0.067-0.778-0.165-1.149c0.478,0.235,0.913,0.555,1.289,0.951c0.498,0.524,0.847,1.136,1.048,1.783
		C89.152,7.549,88.612,8.604,87.71,9.506"/>
	
		<line style="clip-path:url(#SVGID_2_);fill:#FFFFFF;stroke:#FFFFFF;stroke-width:0.75;stroke-miterlimit:10;" x1="59.201" y1="38.875" x2="77.072" y2="38.875"/>
	
		<line style="clip-path:url(#SVGID_2_);fill:#FFFFFF;stroke:#FFFFFF;stroke-width:0.75;stroke-miterlimit:10;" x1="59.201" y1="64.406" x2="77.072" y2="64.406"/>
</g>
</svg>
