<?xml version="1.0" encoding="utf-8"?>
<!-- Generator: Adobe Illustrator 16.0.0, SVG Export Plug-In . SVG Version: 6.00 Build 0)  -->
<!DOCTYPE svg PUBLIC "-//W3C//DTD SVG 1.1//EN" "http://www.w3.org/Graphics/SVG/1.1/DTD/svg11.dtd">
<svg version="1.1" id="Capa_1" xmlns="http://www.w3.org/2000/svg" xmlns:xlink="http://www.w3.org/1999/xlink" x="0px" y="0px"
	 width="136.274px" height="70.298px" viewBox="0 0 136.274 70.298" style="enable-background:new 0 0 136.274 70.298;"
	 xml:space="preserve">
<g>
	<path style="fill:#FFFFFF;" d="M54.052,55.448c-0.874,1.843-2.66,3.097-5.072,3.097c-3.306,0-5.68-2.317-5.68-5.509
		c0-3.192,2.375-5.548,5.661-5.548c2.223,0,4.179,1.064,5.053,3.135l-1.9,0.513c-0.285-0.437-1.121-1.823-3.134-1.823
		c-2.166,0-3.667,1.52-3.667,3.704c0,2.223,1.539,3.704,3.647,3.704c1.558,0,2.622-0.798,3.191-1.785L54.052,55.448z"/>
	<path style="fill:#FFFFFF;" d="M58.119,55.828l-0.931,2.508h-2.033l4.161-10.639h2.413l4.16,10.639h-2.071l-0.931-2.508H58.119z
		 M61.5,52.066c-0.684-1.823-0.95-2.678-0.969-2.697h-0.057l-1.026,2.812l-0.703,1.919h3.515L61.5,52.066z"/>
	<path style="fill:#FFFFFF;" d="M76.414,53.263l0.02-2.641h-0.057l-2.736,5.148H72.33l-2.773-5.263h-0.038
		c0,0.02,0.019,1.672,0.019,2.641v5.187H67.6V47.697h2.432l1.957,3.571c0.684,1.235,1.064,2.052,1.082,2.052h0.058
		c0.038,0,0.437-0.816,1.121-2.07l1.919-3.553h2.241v10.639h-1.995V53.263z"/>
	<path style="fill:#FFFFFF;" d="M83.084,55.828l-0.93,2.508h-2.033l4.16-10.639h2.412l4.162,10.639h-2.072l-0.93-2.508H83.084z
		 M86.467,52.066c-0.684-1.823-0.951-2.678-0.969-2.697h-0.059l-1.025,2.812l-0.703,1.919h3.516L86.467,52.066z"/>
</g>
<g>
	
		<line style="fill:#FFFFFF;stroke:#FFFFFF;stroke-width:0.75;stroke-miterlimit:10;" x1="59.201" y1="38.858" x2="77.072" y2="38.858"/>
	
		<line style="fill:#FFFFFF;stroke:#FFFFFF;stroke-width:0.75;stroke-miterlimit:10;" x1="59.201" y1="64.389" x2="77.072" y2="64.389"/>
</g>
<path style="fill:#FFFFFF;" d="M88.159,22.605c0.002-0.024,0.014-0.045,0.014-0.069c0-0.052-0.006-0.102-0.014-0.148
	c-0.051-4.016-2.101-6.368-5.097-7.751v-2.124c0-4.136-3.022-6.604-8.087-6.604c-3.791,0-6.438,1.384-7.529,3.816
	c-1.238-2.061-3.748-3.22-7.218-3.22c-5.064,0-8.086,2.47-8.086,6.604v1.938c-2.29,1.443-3.742,3.761-3.742,7.486v3.575v0.001l0,0
	v4.152c0,0.798,0.64,1.446,1.426,1.446h1.893c0.786,0,1.426-0.648,1.426-1.446v-3.431h30.267v3.431c0,0.798,0.64,1.446,1.428,1.446
	h1.891c0.789,0,1.428-0.648,1.428-1.446V26.11l0,0v-0.001V22.605z M49.827,25.387v-2.13h36.904v2.13H49.827L49.827,25.387z
	 M68.316,12.512c0-4.655,4.657-5.158,6.66-5.158c2.002,0,6.66,0.503,6.66,5.158v1.559c-3.915-1.326-8.967-1.399-13.341-1.404
	c-0.001-0.014-0.001-0.027-0.001-0.042C68.301,12.586,68.316,12.552,68.316,12.512z M53.57,13.111c0-4.657,4.657-5.158,6.659-5.158
	c1.936,0,6.339,0.48,6.632,4.714c-4.728,0.004-9.699,0.081-13.292,1.638V13.111z M67.555,14.114c5.118,0,10.621,0.002,14.415,1.558
	c0.07,0.044,0.144,0.076,0.229,0.095c2.548,1.107,4.276,2.955,4.507,6.047H49.85C50.297,14.68,57.505,14.114,67.555,14.114z
	 M49.827,30.262v-3.428h1.893v3.428H49.827z M84.841,30.262v-3.428h1.891l0.002,3.428H84.841z"/>
</svg>
