<?xml version="1.0" encoding="utf-8"?>
<!-- Generator: Adobe Illustrator 16.0.0, SVG Export Plug-In . SVG Version: 6.00 Build 0)  -->
<!DOCTYPE svg PUBLIC "-//W3C//DTD SVG 1.1//EN" "http://www.w3.org/Graphics/SVG/1.1/DTD/svg11.dtd">
<svg version="1.1" id="Capa_1" xmlns="http://www.w3.org/2000/svg" xmlns:xlink="http://www.w3.org/1999/xlink" x="0px" y="0px"
	 width="174.139px" height="56.015px" viewBox="0 0 174.139 56.015" style="enable-background:new 0 0 174.139 56.015;"
	 xml:space="preserve">
<g>
	<path style="fill:#FFFFFF;" d="M26.875,42.965h-4.738V12.817h4.738v12.92h5.384v-12.92h4.824v30.148h-4.824v-12.92h-5.384V42.965z"
		/>
	<path style="fill:#FFFFFF;" d="M46.729,30.949l-1.464,2.757v9.26h-4.738V12.817h4.738v13.135l6.202-13.135h4.738l-6.59,13.437
		l6.59,16.711h-4.867L46.729,30.949z"/>
	<path style="fill:#FFFFFF;" d="M72.525,19.751v1.076c0,3.101-0.947,5.083-3.058,6.073c2.541,0.99,3.532,3.273,3.532,6.46v2.455
		c0,4.652-2.455,7.149-7.193,7.149h-7.451V12.817h7.149C70.416,12.817,72.525,15.099,72.525,19.751z M63.093,17.124v7.969h1.853
		c1.766,0,2.842-0.775,2.842-3.188v-1.679c0-2.154-0.732-3.102-2.412-3.102H63.093z M63.093,29.399v9.26h2.713
		c1.594,0,2.455-0.732,2.455-2.972v-2.628c0-2.799-0.904-3.66-3.058-3.66H63.093z"/>
</g>
<g>
	<path style="fill:#FFFFFF;" d="M90.723,41.844c-0.959,0.772-1.9,1.158-2.824,1.158c-0.772,0-1.416-0.252-1.932-0.756
		s-0.773-1.136-0.773-1.896c0-1.432,1.051-2.574,3.153-3.428c-0.241-0.674-0.361-1.202-0.361-1.586c0-0.7,0.298-1.333,0.894-1.897
		s1.266-0.847,2.012-0.847c0.526,0,0.953,0.151,1.278,0.455c0.326,0.304,0.489,0.701,0.489,1.191c0,1.227-0.988,2.151-2.966,2.771
		c0.571,1.531,1.208,2.772,1.907,3.724c0.691-0.724,1.096-1.536,1.212-2.438h-1.379l0.637-0.99h1.774
		c0.878,0,1.557-0.146,2.033-0.436l-0.521,0.824c-0.526,0.401-1.023,0.602-1.493,0.602h-0.214c-0.348,1.071-0.953,1.995-1.814,2.771
		c0.635,0.794,1.156,1.191,1.566,1.191c0.349,0,0.814-0.193,1.4-0.582c0.049-0.031,0.119-0.078,0.213-0.141l-0.1,0.496
		c-0.786,0.646-1.524,0.97-2.216,0.97c-0.401,0-0.728-0.073-0.978-0.22C91.471,42.634,91.139,42.322,90.723,41.844z M90.502,41.503
		c-0.799-1.174-1.482-2.572-2.048-4.197c-1.241,0.562-1.86,1.445-1.86,2.651c0,0.638,0.191,1.167,0.578,1.59
		c0.386,0.422,0.874,0.632,1.463,0.632C89.161,42.179,89.783,41.955,90.502,41.503z M89.564,36.616
		c1.33-0.523,1.996-1.334,1.996-2.435c0-0.786-0.324-1.18-0.971-1.18c-0.406,0-0.736,0.166-0.988,0.499s-0.379,0.771-0.379,1.312
		C89.223,35.303,89.338,35.905,89.564,36.616z"/>
</g>
<g>
	<path style="fill:#FFFFFF;" d="M92.746,20.653v-3.782h-5.002v3.782h-0.522v-7.702h0.522v3.425h5.002v-3.425h0.508v7.702H92.746z"/>
	<path style="fill:#FFFFFF;" d="M99.043,12.799c2.212,0,3.984,1.692,3.984,4.017c0,2.31-1.772,4.002-3.984,4.002
		c-2.227,0-3.971-1.692-3.971-4.002C95.072,14.491,96.816,12.799,99.043,12.799z M99.043,20.323c1.923,0,3.462-1.431,3.462-3.507
		c0-2.09-1.539-3.521-3.462-3.521c-1.938,0-3.449,1.431-3.449,3.521C95.594,18.893,97.105,20.323,99.043,20.323z"/>
	<path style="fill:#FFFFFF;" d="M111.386,16.403l0.014-2.709h-0.014l-2.816,5.062h-0.427l-2.803-5.089h-0.014
		c0,0.015,0.027,1.912,0.027,2.724v4.263h-0.521v-7.702h0.646l1.909,3.411c0.66,1.196,0.962,1.815,0.976,1.815h0.027
		c0.015,0,0.316-0.619,0.989-1.829l1.896-3.397h0.632v7.702h-0.521V16.403z"/>
	<path style="fill:#FFFFFF;" d="M114.303,12.951h5.083v0.496h-4.562v2.93h3.627v0.495h-3.627v3.287h4.63v0.496h-5.151V12.951z"/>
	<path style="fill:#FFFFFF;" d="M121.093,20.323c0-0.262,0.18-0.482,0.522-0.482c0.344,0,0.55,0.234,0.55,0.646
		c0,0.495-0.357,1.333-1.059,1.609l-0.247-0.248c0.481-0.178,0.783-0.784,0.797-1.1C121.326,20.832,121.093,20.639,121.093,20.323z"
		/>
</g>
<g>
	<path style="fill:#FFFFFF;" d="M89.461,27.317l-1.538,1.555v2.572h-0.757v-7.702h0.757v2.338c0,1.142-0.014,1.856-0.014,1.87h0.026
		l1.141-1.155l3.023-3.053h0.976l-3.051,3.066l3.353,4.636h-0.906L89.461,27.317z"/>
	<path style="fill:#FFFFFF;" d="M94.77,23.742h0.754v7.702H94.77V23.742z"/>
	<path style="fill:#FFFFFF;" d="M100.705,24.457v6.987H99.95v-6.987h-2.763v-0.715h6.28v0.715H100.705z"/>
	<path style="fill:#FFFFFF;" d="M111.632,29.367c-0.646,1.348-1.992,2.242-3.654,2.242c-2.295,0-4.04-1.691-4.04-4.016
		c0-2.312,1.745-4.003,4.026-4.003c1.482,0,2.939,0.702,3.6,2.27l-0.729,0.192c-0.192-0.329-0.907-1.747-2.831-1.747
		c-1.909,0-3.298,1.335-3.298,3.288c0,1.967,1.402,3.3,3.271,3.3c1.387,0,2.404-0.742,2.926-1.732L111.632,29.367z"/>
	<path style="fill:#FFFFFF;" d="M118.644,31.444v-3.645h-4.658v3.645h-0.755v-7.702h0.755v3.343h4.658v-3.343h0.756v7.702H118.644z"
		/>
	<path style="fill:#FFFFFF;" d="M121.684,23.742h5.208v0.715h-4.452v2.628h3.504v0.701h-3.504v2.942h4.521v0.716h-5.276V23.742z"/>
	<path style="fill:#FFFFFF;" d="M134.342,31.444l-4.755-6.547h-0.026c0,0.014,0.026,0.839,0.026,1.774v4.772h-0.755v-7.702h0.783
		l4.727,6.464h0.028c0-0.014-0.028-0.812-0.028-1.691v-4.772h0.77v7.702H134.342z"/>
</g>
<g>
	<path style="fill:#FFFFFF;" d="M101.859,38.012c0.783,0.18,1.621,0.757,1.621,1.885c0,1.196-0.92,2.187-2.762,2.187h-3.338v-7.702
		h3.256c1.415,0,2.377,0.922,2.377,1.967c0,0.977-0.618,1.444-1.154,1.609V38.012z M100.362,37.545c0.646,0,1.209-0.33,1.209-0.99
		c0-0.536-0.413-0.963-1.195-0.963h-1.553v1.953H100.362z M100.65,40.874c0.811,0,1.333-0.398,1.333-1.072
		c0-0.702-0.563-1.128-1.36-1.128h-1.8v2.2H100.65z"/>
	<path style="fill:#FFFFFF;" d="M104.899,34.381h5.62v1.349h-4.177v1.76h3.146v1.279h-3.146v1.967h4.245v1.348h-5.688V34.381z"/>
	<path style="fill:#FFFFFF;" d="M114.342,42.083v-2.998l-2.898-4.704h1.649l1.099,1.775c0.522,0.865,0.92,1.554,0.935,1.567h0.027
		c0.015-0.014,0.412-0.702,0.962-1.582l1.071-1.761h1.512l-2.913,4.704v2.998H114.342z"/>
	<path style="fill:#FFFFFF;" d="M123.016,34.231c2.336,0,4.095,1.678,4.095,4.002c0,2.338-1.759,4.002-4.095,4.002
		c-2.321,0-4.066-1.664-4.066-4.002C118.949,35.909,120.694,34.231,123.016,34.231z M123.016,40.915
		c1.511,0,2.625-1.087,2.625-2.682s-1.114-2.682-2.625-2.682c-1.512,0-2.611,1.087-2.611,2.682S121.504,40.915,123.016,40.915z"/>
	<path style="fill:#FFFFFF;" d="M133.916,42.083L130,36.596h-0.041c0,0.014,0.027,0.839,0.027,1.747v3.74h-1.442v-7.702h1.483
		l3.916,5.378h0.027c0-0.014-0.014-0.771-0.014-1.581v-3.797h1.442v7.702H133.916z"/>
	<path style="fill:#FFFFFF;" d="M140.144,34.381c2.474,0,4.272,1.458,4.272,3.879c0,2.435-1.799,3.823-4.23,3.823h-2.858v-7.702
		H140.144z M140.171,40.736c1.663,0,2.789-0.771,2.789-2.476c0-1.691-1.112-2.53-2.83-2.53h-1.36v5.006H140.171z"/>
	<path style="fill:#FFFFFF;" d="M145.342,41.382c0-0.453,0.315-0.812,0.893-0.812s0.879,0.358,0.879,0.812
		c0,0.468-0.302,0.825-0.879,0.825C145.645,42.208,145.342,41.836,145.342,41.382z"/>
</g>
<line style="fill:#FFFFFF;stroke:#FFFFFF;stroke-width:0.824;stroke-miterlimit:10;" x1="80.153" y1="12.553" x2="80.152" y2="42.6"/>
<g>
	<defs>
		<rect id="SVGID_1_" x="13.331" y="3.757" width="150.774" height="48.5"/>
	</defs>
	<clipPath id="SVGID_2_">
		<use xlink:href="#SVGID_1_"  style="overflow:visible;"/>
	</clipPath>
	
		<rect x="13.682" y="4.109" style="clip-path:url(#SVGID_2_);fill:none;stroke:#FFFFFF;stroke-width:0.81;stroke-miterlimit:10;" width="140.031" height="46.825"/>
</g>
</svg>
