<?xml version="1.0" encoding="utf-8"?>
<!-- Generator: Adobe Illustrator 16.0.0, SVG Export Plug-In . SVG Version: 6.00 Build 0)  -->
<!DOCTYPE svg PUBLIC "-//W3C//DTD SVG 1.1//EN" "http://www.w3.org/Graphics/SVG/1.1/DTD/svg11.dtd">
<svg version="1.1" id="Capa_1" xmlns="http://www.w3.org/2000/svg" xmlns:xlink="http://www.w3.org/1999/xlink" x="0px" y="0px"
	 width="136.274px" height="70.298px" viewBox="0 0 136.274 70.298" style="enable-background:new 0 0 136.274 70.298;"
	 xml:space="preserve">
<g>
	<g>
		<path style="fill:#FFFFFF;" d="M54.333,55.061c0.94,0.215,1.944,0.906,1.944,2.257c0,1.434-1.104,2.619-3.311,2.619h-4.004v-9.225
			h3.905c1.697,0,2.85,1.103,2.85,2.355c0,1.171-0.741,1.73-1.384,1.928V55.061z M52.539,54.5c0.773,0,1.45-0.395,1.45-1.187
			c0-0.641-0.495-1.152-1.433-1.152h-1.861V54.5H52.539z M52.884,58.488c0.972,0,1.598-0.479,1.598-1.283
			c0-0.841-0.675-1.354-1.63-1.354h-2.158v2.637H52.884z"/>
		<path style="fill:#FFFFFF;" d="M59.871,57.762l-0.807,2.175h-1.764l3.609-9.225h2.092l3.609,9.225h-1.797l-0.808-2.175H59.871z
			 M62.804,54.5c-0.593-1.581-0.824-2.322-0.84-2.339h-0.048L61.025,54.6l-0.61,1.663h3.049L62.804,54.5z"/>
		<path style="fill:#FFFFFF;" d="M74.535,59.937l-4.694-6.573h-0.05c0,0.018,0.033,1.005,0.033,2.093v4.48h-1.73v-9.225h1.779
			l4.694,6.441h0.035c0-0.016-0.018-0.923-0.018-1.895v-4.547h1.729v9.225H74.535z M74.567,48.999
			c-0.132,0.164-0.607,0.51-1.251,0.51c-0.906,0-1.45-0.543-2.307-0.543c-0.527,0-0.923,0.265-1.104,0.462l-0.329-1.316
			c0.133-0.183,0.592-0.545,1.27-0.545c0.889,0,1.399,0.526,2.307,0.526c0.543,0,0.889-0.23,1.087-0.429L74.567,48.999z"/>
		<path style="fill:#FFFFFF;" d="M82.922,50.53c2.803,0,4.761,2.011,4.761,4.796c0,2.799-1.958,4.794-4.761,4.794
			c-2.783,0-4.876-1.995-4.876-4.794C78.046,52.541,80.139,50.53,82.922,50.53z M82.922,58.537c1.812,0,2.999-1.3,2.999-3.211
			c0-1.91-1.187-3.213-2.999-3.213c-1.812,0-3.131,1.303-3.131,3.213C79.791,57.237,81.11,58.537,82.922,58.537z"/>
	</g>
	<g>
		<defs>
			<polygon id="SVGID_1_" points="9.391,6.732 127.571,6.732 127.722,70.298 9.541,70.298 			"/>
		</defs>
		<clipPath id="SVGID_2_">
			<use xlink:href="#SVGID_1_"  style="overflow:visible;"/>
		</clipPath>
		
			<line style="clip-path:url(#SVGID_2_);fill:#FFFFFF;stroke:#FFFFFF;stroke-width:0.75;stroke-miterlimit:10;" x1="60.88" y1="43.046" x2="76.378" y2="43.046"/>
		
			<line style="clip-path:url(#SVGID_2_);fill:#FFFFFF;stroke:#FFFFFF;stroke-width:0.75;stroke-miterlimit:10;" x1="60.88" y1="65.187" x2="76.378" y2="65.187"/>
	</g>
	<path style="fill:#FFFFFF;" d="M86.223,21.739H56.319V5.151c0-2.93,1.221-3.102,1.808-3.185c1.122-0.163,2.008,0.832,2.342,1.648
		c-1.185,1.074-1.548,2.848-0.761,4.32c0.143,0.268,0.417,0.419,0.7,0.419c0.127,0,0.254-0.03,0.373-0.093l4.9-2.614
		c0.186-0.1,0.324-0.269,0.387-0.47c0.06-0.201,0.038-0.419-0.061-0.605c-0.623-1.165-1.832-1.889-3.154-1.889
		c-0.336,0-0.67,0.055-0.995,0.149c-0.659-1.44-2.152-2.691-3.954-2.437c-2.105,0.298-3.172,1.898-3.172,4.756v16.588h-3.916
		c-3.408,0-3.322,4.687,0,4.662c0.476-0.004,0.782,0.267,0.85,0.916c0.188,1.826,1.061,4.36,3.066,6.269
		c0.494,0.469,0.198,0.964,0.198,0.964l-0.742,1.524c-0.192,0.393-0.028,0.866,0.366,1.061c0.112,0.054,0.231,0.078,0.345,0.078
		c0.295,0,0.578-0.164,0.715-0.446l0.722-1.479c0,0,0.183-0.572,0.736-0.354c0.895,0.35,1.952,0.516,3.179,0.516h16.662
		c0.878,0,1.693-0.19,2.489-0.413c0.672-0.19,0.915,0.687,0.915,0.687l0.517,1.043c0.139,0.281,0.419,0.441,0.711,0.441
		c0.119,0,0.238-0.025,0.352-0.082c0.394-0.195,0.556-0.67,0.36-1.063l-0.77-1.546c0,0-0.241-0.396,0.252-0.827
		c0.268-0.23,0.533-0.476,0.787-0.747c1.717-1.843,2.516-4.108,2.899-5.737c0.129-0.53,0.183-0.792,0.796-0.806
		C89.412,26.328,89.561,21.74,86.223,21.739 M64.087,4.697l-3.208,1.712c-0.059-0.762,0.327-1.523,1.042-1.906
		c0.291-0.155,0.605-0.233,0.931-0.233C63.311,4.27,63.742,4.424,64.087,4.697 M86.223,24.813H85.28
		c-0.96-0.015-1.117,0.913-1.269,1.431c-0.295,0.991-0.61,3.434-2.645,5.617c-1.239,1.329-2.734,2.002-4.452,2.002H60.253
		c-6.204,0-6.824-5.529-7.126-7.94c-0.064-0.499-0.116-1.026-1.008-1.11h-1.304c-1.176,0.001-1.176-1.486,0-1.486h35.407
		C87.229,23.327,87.33,24.814,86.223,24.813"/>
</g>
</svg>
