<?xml version="1.0" encoding="utf-8"?>
<!-- Generator: Adobe Illustrator 16.0.0, SVG Export Plug-In . SVG Version: 6.00 Build 0)  -->
<!DOCTYPE svg PUBLIC "-//W3C//DTD SVG 1.1//EN" "http://www.w3.org/Graphics/SVG/1.1/DTD/svg11.dtd">
<svg version="1.1" id="Capa_1" xmlns="http://www.w3.org/2000/svg" xmlns:xlink="http://www.w3.org/1999/xlink" x="0px" y="0px"
	 width="136.274px" height="70.298px" viewBox="0 0 136.274 70.298" style="enable-background:new 0 0 136.274 70.298;"
	 xml:space="preserve">
<g>
	<path style="fill:#FFFFFF;" d="M43.051,56.388l-0.896,2.413H40.2l4.003-10.237h2.321l4.003,10.237h-1.993l-0.896-2.413H43.051z
		 M46.305,52.769c-0.658-1.755-0.914-2.578-0.932-2.596h-0.055l-0.987,2.705l-0.677,1.847h3.382L46.305,52.769z"/>
	<path style="fill:#FFFFFF;" d="M52.175,48.564h1.919v8.446h5.045v1.791h-6.964V48.564z"/>
	<path style="fill:#FFFFFF;" d="M69.323,58.801c0-1.023,0.019-1.206,0.019-1.279h-0.037c-0.493,0.566-1.681,1.48-3.527,1.48
		c-3.035,0-5.356-2.212-5.356-5.319c0-3.071,2.285-5.319,5.448-5.319c2.029,0,4.003,0.932,4.88,3.016l-1.755,0.476
		C68.52,50.941,67.44,50.1,65.887,50.1c-2.084,0-3.528,1.371-3.528,3.583c0,2.139,1.462,3.583,3.766,3.583
		c1.462,0,2.76-0.731,3.18-1.298v-1.061h-2.942v-1.7h4.68v5.594H69.323z"/>
	<path style="fill:#FFFFFF;" d="M78.1,48.364c3.107,0,5.447,2.229,5.447,5.319c0,3.107-2.34,5.319-5.447,5.319
		c-3.09,0-5.411-2.212-5.411-5.319C72.688,50.593,75.01,48.364,78.1,48.364z M78.1,57.248c2.011,0,3.491-1.444,3.491-3.564
		c0-2.121-1.48-3.564-3.491-3.564s-3.474,1.443-3.474,3.564C74.626,55.803,76.089,57.248,78.1,57.248z"/>
	<path style="fill:#FFFFFF;" d="M95.743,54.414v2.889h-1.772l-0.019-2.889h-2.669v-1.682h2.669v-2.869h1.773l0.018,2.869h2.651
		v1.682H95.743z"/>
</g>
<g>
	<defs>
		<rect id="SVGID_1_" x="3.139" y="2.65" width="131.136" height="67.648"/>
	</defs>
	<clipPath id="SVGID_2_">
		<use xlink:href="#SVGID_1_"  style="overflow:visible;"/>
	</clipPath>
	
		<line style="clip-path:url(#SVGID_2_);fill:#FFFFFF;stroke:#FFFFFF;stroke-width:0.75;stroke-miterlimit:10;" x1="60.107" y1="40.059" x2="77.305" y2="40.059"/>
	
		<line style="clip-path:url(#SVGID_2_);fill:#FFFFFF;stroke:#FFFFFF;stroke-width:0.75;stroke-miterlimit:10;" x1="60.107" y1="64.628" x2="77.305" y2="64.628"/>
</g>
<g>
	<path style="fill:#FFFFFF;" d="M44.181,28.783h-4.252V0.595h4.252V28.783z M40.677,28.034h2.755V1.343h-2.755V28.034z"/>
	<path style="fill:#FFFFFF;" d="M63.35,28.783H43.807v-0.75h18.794V1.739c0-0.219-0.159-0.395-0.352-0.395H42.055V0.596H62.25
		c0.606,0,1.1,0.513,1.1,1.144V28.783z"/>
	<path style="fill:#FFFFFF;" d="M59.89,33.576c-0.079,0-0.159-0.001-0.24-0.007l-0.356-0.017v-5.145h0.749v4.417
		c0.71-0.031,1.28-0.272,1.696-0.72c1.146-1.229,0.869-3.628,0.867-3.651l0.742-0.091c0.014,0.111,0.323,2.765-1.06,4.251
		C61.693,33.253,60.887,33.576,59.89,33.576z"/>
	<polygon style="fill:#FFFFFF;" points="54.778,9.257 51.153,5.633 47.672,9.116 43.564,5.633 44.048,5.062 47.63,8.099 
		51.153,4.575 54.778,8.198 58.693,4.282 62.813,8.402 62.285,8.932 58.693,5.34 	"/>
	<polygon style="fill:#FFFFFF;" points="54.778,16.167 51.153,12.543 47.672,16.027 43.564,12.543 44.048,11.973 47.63,15.01 
		51.153,11.484 54.778,15.109 58.693,11.193 62.813,15.312 62.285,15.842 58.693,12.251 	"/>
	<polygon style="fill:#FFFFFF;" points="54.778,23.124 51.153,19.499 47.672,22.984 43.564,19.499 44.048,18.929 47.63,21.965 
		51.153,18.44 54.778,22.066 58.693,18.149 62.813,22.269 62.285,22.798 58.693,19.208 	"/>
	<rect x="36.216" y="0.595" style="fill:#FFFFFF;" width="4.087" height="0.749"/>
	<rect x="36.216" y="3.885" style="fill:#FFFFFF;" width="4.087" height="0.749"/>
	<rect x="36.216" y="7.783" style="fill:#FFFFFF;" width="4.087" height="0.749"/>
	<rect x="36.216" y="11.072" style="fill:#FFFFFF;" width="4.087" height="0.749"/>
	<rect x="36.216" y="14.432" style="fill:#FFFFFF;" width="4.087" height="0.749"/>
	<rect x="36.216" y="17.719" style="fill:#FFFFFF;" width="4.087" height="0.75"/>
	<rect x="36.216" y="21.621" style="fill:#FFFFFF;" width="4.087" height="0.749"/>
	<rect x="36.216" y="24.911" style="fill:#FFFFFF;" width="4.087" height="0.749"/>
	<rect x="36.216" y="28.034" style="fill:#FFFFFF;" width="4.087" height="0.75"/>
	<path style="fill:#FFFFFF;" d="M86.06,33.57h-4.253V5.383h4.253V33.57z M82.557,32.821h2.754V6.132h-2.754V32.821z"/>
	<path style="fill:#FFFFFF;" d="M63.35,28.409l-0.749-0.001l0.038-21.881c0-0.63,0.493-1.143,1.1-1.143h20.195v0.749H63.738
		c-0.193,0-0.352,0.177-0.352,0.395L63.35,28.409z"/>
	<rect x="59.667" y="32.821" style="fill:#FFFFFF;" width="22.513" height="0.749"/>
	<polygon style="fill:#FFFFFF;" points="71.21,14.045 67.295,10.13 63.703,13.721 63.173,13.19 67.295,9.071 71.21,12.986 
		74.835,9.362 78.358,12.888 81.94,9.851 82.424,10.422 78.317,13.904 74.835,10.42 	"/>
	<polygon style="fill:#FFFFFF;" points="71.21,20.955 67.295,17.039 63.703,20.629 63.173,20.101 67.295,15.98 71.21,19.896 
		74.835,16.272 78.358,19.797 81.94,16.761 82.424,17.332 78.317,20.814 74.835,17.332 	"/>
	<polygon style="fill:#FFFFFF;" points="71.21,27.911 67.295,23.995 63.703,27.587 63.173,27.057 67.295,22.937 71.21,26.853 
		74.835,23.229 78.358,26.754 81.94,23.718 82.424,24.289 78.317,27.772 74.835,24.289 	"/>
	<rect x="85.685" y="5.383" style="fill:#FFFFFF;" width="4.087" height="0.749"/>
	<rect x="85.685" y="8.672" style="fill:#FFFFFF;" width="4.087" height="0.749"/>
	<rect x="85.685" y="12.571" style="fill:#FFFFFF;" width="4.087" height="0.749"/>
	<rect x="85.685" y="15.86" style="fill:#FFFFFF;" width="4.087" height="0.749"/>
	<rect x="85.685" y="19.22" style="fill:#FFFFFF;" width="4.087" height="0.748"/>
	<rect x="85.685" y="22.508" style="fill:#FFFFFF;" width="4.087" height="0.75"/>
	<rect x="85.685" y="26.409" style="fill:#FFFFFF;" width="4.087" height="0.749"/>
	<rect x="85.685" y="29.699" style="fill:#FFFFFF;" width="4.087" height="0.748"/>
	<rect x="85.685" y="32.821" style="fill:#FFFFFF;" width="4.087" height="0.749"/>
</g>
</svg>
